# File created by Blade
# Date/Time:  Tue Jan 27 17:27:44 2015
#---------------------------------------------------------
:version 1.10
:name HOM
:units
  mass 1.0
  length 1.000000
  angle deg
:documentation
     Acclaim Skeleton File
:root
   axis xyz
   order TX TY TZ RX RY RZ
   position 0.000000 0.000000 0.000000
   orientation 0 0 0
:bonedata
   begin
      id 1
      name Spine_dum
      direction 0.000000 1.000000 0.000000
      length 7.539951
      axis 0.0 0.0 0.0 xyz
   end
   begin
      id 2
      name LeftUpLeg_dum
      direction 1.000000 0.000000 0.000000
      length 3.345476
      axis 0.0 0.0 0.0 xyz
   end
   begin
      id 3
      name RightUpLeg_dum
      direction -1.000000 0.000000 0.000000
      length 3.345476
      axis 0.0 0.0 0.0 xyz
   end
   begin
      id 4
      name Spine
      direction 0.000000 1.000000 0.000000
      length 0.000000
      axis 0.0 0.0 0.0 xyz
      dof rx ry rz
   end
   begin
      id 5
      name Spine_dum1
      direction 0.000000 1.000000 0.000000
      length 15.093809
      axis 0.0 0.0 0.0 xyz
   end
   begin
      id 6
      name Spine_dum2
      direction 0.000000 1.000000 0.000000
      length 9.738928
      axis 0.0 0.0 0.0 xyz
   end
   begin
      id 7
      name Spine_dum3
      direction 0.000000 1.000000 0.000000
      length 9.738928
      axis 0.0 0.0 0.0 xyz
   end
   begin
      id 8
      name Head
      direction 0.000000 1.000000 0.000000
      length 4.527550
      axis 0.0 0.0 0.0 xyz
      dof rx ry rz
   end
   begin
      id 9
      name LeftShoulder
      direction 1.000000 0.000000 0.000000
      length 7.084015
      axis 0.0 0.0 -90.0 xyz
      dof rx ry rz
   end
   begin
      id 10
      name LeftArm
      direction 1.000000 0.000000 0.000000
      length 10.259319
      axis 0.0 0.0 -90.0 xyz
      dof rx ry rz
   end
   begin
      id 11
      name LeftForeArm
      direction 1.000000 0.000000 0.000000
      length 9.896984
      axis 0.0 0.0 -90.0 xyz
      dof ry rz rx
   end
   begin
      id 12
      name LeftHand
      direction 0.000000 0.000000 0.000000
      length 0.000000
      axis 0.0 0.0 -90.0 xyz
      dof rx ry rz
   end
   begin
      id 13
      name LeftHand_dum1
      direction 0.000000 0.000000 0.000000
      length 0.000000
      axis 0.0 0.0 -90.0 xyz
   end
   begin
      id 14
      name LeftHand_dum2
      direction 1.000000 0.000000 0.000000
      length 3.937000
      axis 0.0 0.0 -90.0 xyz
   end
   begin
      id 15
      name LeftHandThumb1
      direction 0.000000 0.000000 1.000000
      length 3.937000
      axis 0.0 0.0 -90.0 xyz
      dof rx rz ry
   end
   begin
      id 16
      name RightShoulder
      direction -1.000000 0.000000 0.000000
      length 7.084015
      axis 0.0 0.0 90.0 xyz
      dof rx ry rz
   end
   begin
      id 17
      name RightArm
      direction -1.000000 0.000000 0.000000
      length 10.259319
      axis 0.0 0.0 90.0 xyz
      dof rx ry rz
   end
   begin
      id 18
      name RightForeArm
      direction -1.000000 0.000000 0.000000
      length 9.896984
      axis 0.0 0.0 90.0 xyz
      dof ry rz rx
   end
   begin
      id 19
      name RightHand
      direction 0.000000 0.000000 0.000000
      length 0.000000
      axis 0.0 0.0 90.0 xyz
      dof rx ry rz
   end
   begin
      id 20
      name RightHand_dum1
      direction 0.000000 0.000000 0.000000
      length 0.000000
      axis 0.0 0.0 90.0 xyz
   end
   begin
      id 21
      name RightHand_dum2
      direction -1.000000 0.000000 0.000000
      length 3.937000
      axis 0.0 0.0 90.0 xyz
   end
   begin
      id 22
      name RightHandThumb1
      direction 0.000000 0.000000 1.000000
      length 3.937000
      axis 0.0 0.0 90.0 xyz
      dof rx rz ry
   end
   begin
      id 23
      name LeftUpLeg
      direction 0.000000 -1.000000 0.000000
      length 19.114733
      axis 0.0 0.0 0.0 xyz
      dof rx ry rz
   end
   begin
      id 24
      name LeftLeg
      direction 0.000000 -1.000000 0.000000
      length 16.045604
      axis 0.0 0.0 0.0 xyz
      dof rx ry rz
   end
   begin
      id 25
      name LeftFoot
      direction 0.000000 -0.258819 0.965926
      length 5.543155
      axis 15.0 0.0 0.0 xyz
      dof rx ry rz
   end
   begin
      id 26
      name LeftToeBase
      direction 0.000000 0.000000 1.000000
      length 2.952750
      axis 0.0 0.0 0.0 xyz
      dof rx ry rz
   end
   begin
      id 27
      name RightUpLeg
      direction 0.000000 -1.000000 0.000000
      length 19.114733
      axis 0.0 0.0 0.0 xyz
      dof rx ry rz
   end
   begin
      id 28
      name RightLeg
      direction 0.000000 -1.000000 0.000000
      length 16.045604
      axis 0.0 0.0 0.0 xyz
      dof rx ry rz
   end
   begin
      id 29
      name RightFoot
      direction 0.000000 -0.258819 0.965926
      length 5.543155
      axis 15.0 0.0 0.0 xyz
      dof rx ry rz
   end
   begin
      id 30
      name RightToeBase
      direction 0.000000 0.000000 1.000000
      length 2.952750
      axis 0.0 0.0 0.0 xyz
      dof rx ry rz
   end
:hierarchy
   begin
      root Spine_dum LeftUpLeg_dum RightUpLeg_dum
      Spine_dum Spine
      LeftUpLeg_dum LeftUpLeg
      RightUpLeg_dum RightUpLeg
      Spine Spine_dum1 Spine_dum2 Spine_dum3
      Spine_dum1 Head
      Spine_dum2 LeftShoulder
      Spine_dum3 RightShoulder
      LeftShoulder LeftArm
      LeftArm LeftForeArm
      LeftForeArm LeftHand
      LeftHand LeftHand_dum1 LeftHand_dum2
      LeftHand_dum1 LeftHandThumb1
      RightShoulder RightArm
      RightArm RightForeArm
      RightForeArm RightHand
      RightHand RightHand_dum1 RightHand_dum2
      RightHand_dum1 RightHandThumb1
      LeftUpLeg LeftLeg
      LeftLeg LeftFoot
      LeftFoot LeftToeBase
      RightUpLeg RightLeg
      RightLeg RightFoot
      RightFoot RightToeBase
   end

# File created by Blade
# Date/Time:  Tue Jan 27 17:27:32 2015
# Frame Rate: 120.000 fps
#------------------------------------------------------
:FULLY-SPECIFIED
:DEGREES
524
root 5.207356 36.930169 0.908381 1.656686 30.042922 -1.177069
Spine 4.791228 5.474554 -0.278947
Head 9.686046 -10.495221 5.792483
LeftShoulder -5.521765 -9.915994 10.396329
LeftArm 1.905134 -14.488018 -56.570054
LeftForeArm 5.559955 -0.000000 102.246767
LeftHand -13.768303 -0.000000 32.164657
LeftHandThumb1 -26.253704 0.000000 33.147579
RightShoulder -9.459246 -20.136252 2.103212
RightArm 16.745200 -26.125568 57.971900
RightForeArm 183.152160 0.000000 29.704296
RightHand 0.771282 -0.000000 0.257454
RightHandThumb1 -24.326973 -0.000000 -32.862282
LeftUpLeg -2.245284 -9.725556 -2.614898
LeftLeg 7.994386 -0.000000 -0.000000
LeftFoot -12.164259 -11.844105 -10.907182
LeftToeBase 13.908261 -0.000000 -0.000000
RightUpLeg -18.859618 12.042803 -4.508095
RightLeg 90.660783 -0.000000 -0.000000
RightFoot -5.020759 1.688468 5.323060
RightToeBase -0.244487 -0.000000 0.000000
525
root 5.210565 36.929511 0.910007 1.622778 30.025765 -1.175182
Spine 4.813946 5.496690 -0.297562
Head 9.601741 -10.503864 5.872554
LeftShoulder -5.538851 -9.937898 10.402466
LeftArm 1.862015 -14.477428 -56.558706
LeftForeArm 5.566897 -0.000000 102.262921
LeftHand -13.736559 -0.000000 32.250401
LeftHandThumb1 -26.253704 0.000000 33.147579
RightShoulder -9.467813 -20.131876 2.113571
RightArm 16.754683 -26.114521 57.975890
RightForeArm 183.168418 -0.000000 29.683992
RightHand 0.738975 -0.000000 0.318648
RightHandThumb1 -24.326973 -0.000000 -32.862282
LeftUpLeg -2.198694 -9.728209 -2.625671
LeftLeg 7.984829 -0.000000 -0.000000
LeftFoot -12.173936 -11.844411 -10.909239
LeftToeBase 13.919411 -0.000000 -0.000000
RightUpLeg -18.800179 12.036660 -4.475420
RightLeg 90.614673 -0.000000 -0.000000
RightFoot -4.949315 1.563805 5.089485
RightToeBase -0.702563 -0.000000 0.000000
526
root 5.213963 36.929001 0.911324 1.599813 30.006696 -1.173187
Spine 4.813088 5.508774 -0.316419
Head 9.591367 -10.518408 5.895693
LeftShoulder -5.558472 -9.922204 10.395358
LeftArm 1.844401 -14.491501 -56.541893
LeftForeArm 5.543681 0.000000 102.286105
LeftHand -13.763254 -0.000000 32.322045
LeftHandThumb1 -26.253704 0.000000 33.147579
RightShoulder -9.456125 -20.117699 2.108922
RightArm 16.737673 -26.115877 57.993402
RightForeArm 183.169147 -0.000000 29.676317
RightHand 0.753088 -0.000000 0.316251
RightHandThumb1 -24.326973 -0.000000 -32.862282
LeftUpLeg -2.163874 -9.730855 -2.637119
LeftLeg 7.979796 -0.000000 -0.000000
LeftFoot -12.186375 -11.825400 -10.915616
LeftToeBase 13.917269 -0.000000 -0.000000
RightUpLeg -18.756860 12.038367 -4.445738
RightLeg 90.582879 -0.000000 -0.000000
RightFoot -4.970307 1.514212 5.133114
RightToeBase -0.451763 -0.000000 0.000000
527
root 5.217068 36.928737 0.912828 1.572200 29.980816 -1.170276
Spine 4.821549 5.534427 -0.336364
Head 9.582843 -10.556424 5.911984
LeftShoulder -5.573931 -9.931234 10.392452
LeftArm 1.801115 -14.479552 -56.507191
LeftForeArm 5.529588 -0.000000 102.313780
LeftHand -13.828618 -0.000000 32.412629
LeftHandThumb1 -26.253704 0.000000 33.147579
RightShoulder -9.452070 -20.123688 2.116320
RightArm 16.743431 -26.104666 57.994377
RightForeArm 183.195552 -0.000000 29.663851
RightHand 0.763428 0.000000 0.398747
RightHandThumb1 -24.326973 -0.000000 -32.862282
LeftUpLeg -2.125467 -9.717885 -2.647224
LeftLeg 7.974624 -0.000000 -0.000000
LeftFoot -12.192523 -11.827543 -10.929823
LeftToeBase 13.960364 -0.000000 -0.000000
RightUpLeg -18.711207 12.046331 -4.423133
RightLeg 90.548245 -0.000000 -0.000000
RightFoot -4.955392 1.501808 5.121726
RightToeBase -0.505463 -0.000000 0.000000
528
root 5.219741 36.927853 0.914092 1.556186 29.959018 -1.170252
Spine 4.808503 5.540614 -0.357524
Head 9.563441 -10.583013 5.936314
LeftShoulder -5.601492 -9.916573 10.393534
LeftArm 1.761613 -14.500477 -56.497746
LeftForeArm 5.574701 -0.000000 102.347829
LeftHand -13.864440 -0.000000 32.481568
LeftHandThumb1 -26.253704 0.000000 33.147579
RightShoulder -9.439033 -20.139883 2.117399
RightArm 16.764745 -26.101317 57.990723
RightForeArm 183.207932 -0.000000 29.652724
RightHand 0.720353 -0.000000 0.363453
RightHandThumb1 -24.326973 -0.000000 -32.862282
LeftUpLeg -2.104329 -9.708124 -2.654274
LeftLeg 7.979845 -0.000000 -0.000000
LeftFoot -12.209529 -11.821753 -10.926020
LeftToeBase 13.941614 -0.000000 -0.000000
RightUpLeg -18.677515 12.041161 -4.397881
RightLeg 90.515300 -0.000000 -0.000000
RightFoot -4.961199 1.476350 5.083015
RightToeBase -0.448664 -0.000000 0.000000
529
root 5.222810 36.927248 0.915320 1.538550 29.921682 -1.168501
Spine 4.804238 5.568149 -0.376224
Head 9.532909 -10.603428 5.958839
LeftShoulder -5.621725 -9.904830 10.376513
LeftArm 1.717277 -14.520573 -56.458588
LeftForeArm 5.585793 -0.000000 102.393750
LeftHand -13.880976 -0.000000 32.501641
LeftHandThumb1 -26.253704 0.000000 33.147579
RightShoulder -9.435699 -20.134496 2.113669
RightArm 16.762587 -26.102384 58.001814
RightForeArm 183.197339 -0.000000 29.655766
RightHand 0.712521 -0.000000 0.339000
RightHandThumb1 -24.326973 -0.000000 -32.862282
LeftUpLeg -2.077660 -9.697080 -2.663625
LeftLeg 7.978131 -0.000000 -0.000000
LeftFoot -12.227140 -11.799826 -10.907223
LeftToeBase 13.943182 -0.000000 -0.000000
RightUpLeg -18.640360 12.046700 -4.382661
RightLeg 90.478707 -0.000000 -0.000000
RightFoot -4.951317 1.476255 5.080663
RightToeBase -0.436624 -0.000000 0.000000
530
root 5.226326 36.926312 0.916762 1.521866 29.890453 -1.166113
Spine 4.797315 5.594665 -0.392822
Head 9.513751 -10.628976 5.964125
LeftShoulder -5.640703 -9.894011 10.362227
LeftArm 1.660291 -14.523184 -56.420266
LeftForeArm 5.597934 0.000000 102.456078
LeftHand -13.888298 -0.000000 32.566530
LeftHandThumb1 -26.253704 0.000000 33.147579
RightShoulder -9.433369 -20.141940 2.112384
RightArm 16.762996 -26.107040 58.001913
RightForeArm 183.208848 -0.000000 29.679749
RightHand 0.710832 0.000000 0.388112
RightHandThumb1 -24.326973 -0.000000 -32.862282
LeftUpLeg -2.048658 -9.699787 -2.675125
LeftLeg 7.970850 -0.000000 -0.000000
LeftFoot -12.241614 -11.777068 -10.933055
LeftToeBase 13.982993 -0.000000 -0.000000
RightUpLeg -18.602658 12.043498 -4.362573
RightLeg 90.443194 -0.000000 -0.000000
RightFoot -4.966324 1.454104 5.068774
RightToeBase -0.335991 -0.000000 0.000000
531
root 5.228750 36.925796 0.917922 1.513960 29.872748 -1.169546
Spine 4.778198 5.606257 -0.406513
Head 9.512592 -10.654161 5.960904
LeftShoulder -5.668076 -9.872780 10.343304
LeftArm 1.609280 -14.520071 -56.380934
LeftForeArm 5.593887 -0.000000 102.535391
LeftHand -13.865318 -0.000000 32.672671
LeftHandThumb1 -26.253704 0.000000 33.147579
RightShoulder -9.437298 -20.147518 2.115486
RightArm 16.771050 -26.115488 57.998175
RightForeArm 183.217896 -0.000000 29.696874
RightHand 0.715633 -0.000000 0.364742
RightHandThumb1 -24.326973 -0.000000 -32.862282
LeftUpLeg -2.047760 -9.695774 -2.676714
LeftLeg 7.996393 -0.000000 -0.000000
LeftFoot -12.264299 -11.770460 -10.927602
LeftToeBase 13.968641 -0.000000 -0.000000
RightUpLeg -18.573108 12.009657 -4.340201
RightLeg 90.402301 -0.000000 -0.000000
RightFoot -4.974122 1.394492 5.027849
RightToeBase -0.243021 -0.000000 0.000000
532
root 5.232122 36.924216 0.919046 1.498031 29.823473 -1.168667
Spine 4.776389 5.657330 -0.423277
Head 9.433163 -10.666678 6.006162
LeftShoulder -5.685218 -9.859141 10.335120
LeftArm 1.547470 -14.527607 -56.346418
LeftForeArm 5.605868 0.000000 102.621947
LeftHand -13.924026 0.000000 32.742865
LeftHandThumb1 -26.253704 0.000000 33.147579
RightShoulder -9.455389 -20.148004 2.120809
RightArm 16.791601 -26.143186 57.979091
RightForeArm 183.201932 -0.000000 29.713099
RightHand 0.711574 -0.000000 0.409485
RightHandThumb1 -24.326973 -0.000000 -32.862282
LeftUpLeg -2.030060 -9.678590 -2.686989
LeftLeg 8.012393 -0.000000 -0.000000
LeftFoot -12.306107 -11.733460 -10.898727
LeftToeBase 13.961524 -0.000000 -0.000000
RightUpLeg -18.537248 12.005616 -4.321817
RightLeg 90.367535 -0.000000 -0.000000
RightFoot -4.992184 1.366112 5.028941
RightToeBase -0.225203 -0.000000 0.000000
533
root 5.234739 36.923458 0.920732 1.490420 29.795874 -1.171142
Spine 4.760591 5.671723 -0.437493
Head 9.411437 -10.669794 5.989526
LeftShoulder -5.719049 -9.841129 10.323567
LeftArm 1.475203 -14.534303 -56.312585
LeftForeArm 5.613497 0.000000 102.719878
LeftHand -13.899622 0.000000 32.762095
LeftHandThumb1 -26.253704 0.000000 33.147579
RightShoulder -9.448236 -20.154160 2.121248
RightArm 16.796494 -26.148376 57.974692
RightForeArm 183.197171 -0.000000 29.740661
RightHand 0.782096 -0.000000 0.384434
RightHandThumb1 -24.326973 -0.000000 -32.862282
LeftUpLeg -2.030374 -9.678262 -2.688437
LeftLeg 8.040965 -0.000000 -0.000000
LeftFoot -12.327524 -11.722131 -10.897576
LeftToeBase 13.931507 -0.000000 -0.000000
RightUpLeg -18.506885 11.974128 -4.307956
RightLeg 90.329882 -0.000000 -0.000000
RightFoot -4.954267 1.405222 5.164449
RightToeBase -0.457861 -0.000000 0.000000
534
root 5.237063 36.922275 0.922282 1.479972 29.759801 -1.172255
Spine 4.751983 5.699914 -0.455262
Head 9.355515 -10.681790 6.000991
LeftShoulder -5.742597 -9.832619 10.309238
LeftArm 1.392032 -14.539729 -56.264034
LeftForeArm 5.594295 -0.000000 102.834908
LeftHand -13.904566 -0.000000 32.833666
LeftHandThumb1 -26.253704 0.000000 33.147579
RightShoulder -9.447978 -20.163362 2.128635
RightArm 16.818412 -26.155160 57.959483
RightForeArm 183.190155 -0.000000 29.756213
RightHand 0.751253 -0.000000 0.336190
RightHandThumb1 -24.326973 -0.000000 -32.862282
LeftUpLeg -2.028587 -9.653655 -2.690957
LeftLeg 8.072493 -0.000000 -0.000000
LeftFoot -12.352622 -11.729628 -10.903459
LeftToeBase 13.956443 -0.000000 -0.000000
RightUpLeg -18.474712 11.949373 -4.291203
RightLeg 90.291447 -0.000000 -0.000000
RightFoot -4.936914 1.398780 5.258513
RightToeBase -0.481259 -0.000000 0.000000
535
root 5.240341 36.921046 0.924562 1.460643 29.708560 -1.177248
Spine 4.750330 5.747500 -0.466541
Head 9.314446 -10.694744 6.015467
LeftShoulder -5.767127 -9.832830 10.301996
LeftArm 1.286379 -14.523695 -56.227935
LeftForeArm 5.604819 -0.000000 102.969317
LeftHand -13.936819 -0.000000 32.959081
LeftHandThumb1 -26.253704 0.000000 33.147579
RightShoulder -9.440168 -20.160408 2.130694
RightArm 16.812630 -26.182090 57.947236
RightForeArm 183.213226 0.000000 29.788099
RightHand 0.711107 0.000000 0.295280
RightHandThumb1 -24.326973 -0.000000 -32.862282
LeftUpLeg -2.015340 -9.639285 -2.693741
LeftLeg 8.101023 -0.000000 -0.000000
LeftFoot -12.392376 -11.715764 -10.896924
LeftToeBase 13.958907 -0.000000 -0.000000
RightUpLeg -18.435038 11.927589 -4.276047
RightLeg 90.252733 -0.000000 -0.000000
RightFoot -4.952452 1.377909 5.307948
RightToeBase -0.463180 -0.000000 0.000000
